<svg id="Receipt" xmlns="http://www.w3.org/2000/svg" width="1080" height="390" viewBox="0 0 1080 390">
  <defs>
    <style>
      .cls-1 {
        fill: #1b1b1b;
        fill-rule: evenodd;
      }
    </style>
  </defs>
  <path id="Barcode_copy" data-name="Barcode copy" class="cls-1" d="M17.155,351.147H6.2V38.2H17.155V351.147Zm25.72,0H30.552V38.2H42.875V351.147Zm26.5,0H44.733V38.2H69.377V351.147Zm11.1,0H74.316V38.2h6.161V351.147Zm31.96,0H91.643V38.2h20.795V351.147Zm15.751,0h-7.7V38.2h7.7V351.147Zm25.829,0h-6.16V38.2h6.16V351.147Zm29.583,0H158.957V38.2H183.6V351.147Zm26.7,0H197.977V38.2H210.3V351.147Zm33.531,0H217.646V38.2H243.83V351.147Zm19.669,0H251.178V38.2H263.5V351.147Zm14.963,0H267.509V38.2h10.953V351.147Zm19.982,0H286.123V38.2h12.321V351.147Zm32.241,0H306.041V38.2h24.644V351.147Zm11.1,0h-6.16V38.2h6.16V351.147Zm31.96,0H352.951V38.2h20.793V351.147Zm23.966,0H383.752V38.2H397.71V351.147Zm17.615,0h-6.161V38.2h6.161V351.147Zm29.583,0h-31.1V38.2h31.1V351.147Zm21.841,0h-2.607V38.2h2.607V351.147Zm-10.42,0H450.57V38.2h5.759V351.147Zm48.809,0H478.953V38.2h26.185V351.147Zm19.669,0H512.485V38.2h12.322V351.147Zm19.945,0H533.8V38.2h10.953V351.147Zm25.719,0H558.149V38.2h12.322V351.147Zm26.5,0H572.329V38.2h24.644V351.147Zm11.1,0h-6.161V38.2h6.161V351.147Zm31.961,0H619.241V38.2h20.793V351.147Zm15.751,0h-7.7V38.2h7.7V351.147Zm25.83,0h-6.161V38.2h6.161V351.147Zm29.583,0H686.553V38.2H711.2V351.147Zm26.7,0H725.574V38.2H737.9V351.147Zm33.532,0H745.243V38.2h26.184V351.147Zm19.669,0H778.774V38.2H791.1V351.147Zm14.962,0H795.106V38.2h10.952V351.147Zm19.983,0H813.719V38.2h12.322V351.147Zm32.239,0H833.637V38.2H858.28V351.147Zm11.1,0H863.22V38.2h6.161V351.147Zm31.96,0H880.547V38.2h20.794V351.147Zm23.965,0H911.347V38.2h13.959V351.147Zm17.617,0h-6.162V38.2h6.162V351.147Zm29.582,0h-31.1V38.2h31.1V351.147Zm21.841,0h-2.608V38.2h2.608V351.147Zm-10.421,0h-5.759V38.2h5.759V351.147Zm48.805,0h-26.18V38.2h26.18V351.147Zm19.67,0h-12.32V38.2h12.32V351.147Z"/>
</svg>
